<svg width="184" height="184" xmlns="http://www.w3.org/2000/svg" xmlns:xlink="http://www.w3.org/1999/xlink" xml:space="preserve" overflow="hidden">
    <g transform="translate(-928 -125)">
        <path fill="#854800" d="M1068 273 1048 273 1048 197 1068 197 1068 273ZM1032 269C1032 271.2 1030.2 273 1028 273 1025.8 273 1024 271.2 1024 269L1024 201C1024 198.8 1025.8 197 1028 197 1030.2 197 1032 198.8 1032 201L1032 269ZM1012 269C1012 271.2 1010.2 273 1008 273 1005.8 273 1004 271.2 1004 269L1004 201C1004 198.8 1005.8 197 1008 197 1010.2 197 1012 198.8 1012 201L1012 269ZM992 269C992 271.2 990.2 273 988 273 985.8 273 984 271.2 984 269L984 201C984 198.8 985.8 197 988 197 990.2 197 992 198.8 992 201L992 269ZM1072 185 1048 185 1048 177 968 177 968 293C968 297.4 971.6 301 976 301L1040 301C1044.4 301 1048 297.4 1048 293L1048 285 1072 285C1076.4 285 1080 281.4 1080 277L1080 193C1080 188.6 1076.4 185 1072 185Z"/>
        <path fill="#854800" d="M1034 155C1030.4 155 1027.2 156.4 1024.8 158.6 1021.8 156.4 1018 155 1014 155 1014 155 1014 155 1013.8 155 1012.8 147.2 1006 141 998 141 990 141 983.2 147.2 982.2 155 982.2 155 982.2 155 982 155 974.2 155 968 161.2 968 169L1048 169C1048 161.2 1041.8 155 1034 155Z"/>
    </g>
</svg>