<svg width="184" height="184" xmlns="http://www.w3.org/2000/svg" xmlns:xlink="http://www.w3.org/1999/xlink" xml:space="preserve" overflow="hidden">
    <g transform="translate(-554 -133)">
        <path fill="#854800" d="M693.156 289.312 597.844 289.312 597.844 171.125 618.812 171.125 618.812 182.562 672.188 182.562 672.188 171.125 693.156 171.125 693.156 289.312ZM645.5 155.875C648.741 155.875 651.219 158.353 651.219 161.594 651.219 164.834 648.741 167.312 645.5 167.312 642.259 167.312 639.781 164.834 639.781 161.594 639.781 160.069 640.353 158.544 641.497 157.591 642.45 156.447 643.975 155.875 645.5 155.875ZM696.969 159.688 664.562 159.688 664.562 155.875C664.562 151.681 661.131 148.25 656.938 148.25L634.062 148.25C629.869 148.25 626.438 151.681 626.438 155.875L626.438 159.688 594.031 159.688C589.838 159.688 586.406 163.119 586.406 167.312L586.406 293.125C586.406 297.319 589.838 300.75 594.031 300.75L696.969 300.75C701.162 300.75 704.594 297.319 704.594 293.125L704.594 167.312C704.594 163.119 701.162 159.688 696.969 159.688Z"/>
    </g>
</svg>