<svg width="96" height="96" xmlns="http://www.w3.org/2000/svg" xmlns:xlink="http://www.w3.org/1999/xlink" xml:space="preserve" overflow="hidden"><g transform="translate(-544 -552)"><path d="M624 572C624.003 568.134 620.872 564.997 617.006 564.994 613.14 564.991 610.003 568.122 610 571.988 609.998 574.358 611.195 576.567 613.18 577.86L608 593 608 593C606.57 592.998 605.174 593.435 604 594.25L593.56 586.42C594.899 582.793 593.044 578.768 589.417 577.429 585.79 576.09 581.765 577.945 580.426 581.572 579.309 584.598 580.405 587.997 583.08 589.8L576.41 611 576 611C572.134 610.991 568.993 614.117 568.983 617.983 568.974 621.849 572.101 624.991 575.967 625 579.833 625.009 582.974 621.883 582.983 618.017 582.989 615.802 581.945 613.715 580.17 612.39L586.9 591 587 591C588.499 590.997 589.957 590.513 591.16 589.62L601.51 597.37C601.177 598.207 601.004 599.099 601 600 600.998 603.866 604.131 607.001 607.997 607.003 611.863 607.004 614.998 603.871 615 600.005 615.001 597.646 613.813 595.444 611.84 594.15L617 579C620.866 579 624 575.866 624 572Z" fill="#854800"/><path d="M564 565 558 565 558 635 627 635 627 629 564 629 564 565Z" fill="#854800"/></g></svg>