<svg width="184" height="184" xmlns="http://www.w3.org/2000/svg" xmlns:xlink="http://www.w3.org/1999/xlink" xml:space="preserve" overflow="hidden">
    <g transform="translate(-184 -134)">
        <path fill="#854800" d="M258.506 284.719C253.198 284.719 249.027 280.548 249.027 275.24 249.027 269.931 253.198 265.76 258.506 265.76 263.815 265.76 267.985 269.931 267.985 275.24 267.985 280.548 263.625 284.719 258.506 284.719ZM258.506 247.75C243.34 247.75 231.017 260.073 231.017 275.24 231.017 290.406 243.34 302.729 258.506 302.729 273.673 302.729 285.996 290.406 285.996 275.24 285.996 260.073 273.673 247.75 258.506 247.75Z"/>
        <path fill="#854800" d="M293.058 269.005 274.194 223.464 331.996 199.521 350.86 245.062Z"/>
        <path fill="#854800" d="M260.781 240.356C265.71 240.735 270.45 242.062 274.621 244.337L240.117 159.404C240.117 159.215 239.927 159.025 239.927 158.835L229.31 163.196C229.31 163.385 229.5 163.575 229.5 163.765L233.86 174.571 218.315 181.017C215.471 182.154 213.954 185.567 215.281 188.41 216.229 190.685 218.315 192.012 220.59 192.012 221.348 192.012 222.106 191.823 222.675 191.633L238.221 185.188 260.781 240.356Z"/>
        <path fill="#854800" d="M334.34 260.831C333.581 260.831 332.823 261.021 332.065 261.21L293.579 277.135C293.2 282.065 292.062 286.804 289.788 290.975L289.788 291.165 336.046 271.827C338.321 271.069 340.027 268.983 340.027 266.519 340.027 263.485 337.373 260.831 334.34 260.831Z"/>
    </g>
</svg>
