<svg width="184" height="184" xmlns="http://www.w3.org/2000/svg" xmlns:xlink="http://www.w3.org/1999/xlink" xml:space="preserve" overflow="hidden">
    <g transform="translate(-903 -134)">
        <path fill="#854800" d="M966.422 267.112C937.672 297.338 917.835 297.779 916.992 297.779L916.992 288.196C917.164 288.196 934.242 287.41 959.58 260.557L959.58 260.557 959.676 260.557 1018.58 201.409C1020.42 199.508 1023.45 199.46 1025.35 201.301 1027.25 203.143 1027.3 206.176 1025.46 208.077 1025.42 208.117 1025.38 208.156 1025.34 208.194Z"/>
        <path fill="#854800" d="M1056.53 190.58C1066.24 180.843 1065.32 161.428 1065.32 161.428 1065.32 161.428 1045.93 160.508 1036.19 170.244 1026.45 179.981 1028.73 198.017 1028.73 198.017 1028.73 198.017 1046.75 200.298 1056.53 190.58Z"/>
        <path fill="#854800" d="M1019.3 234.433C1005.54 234.165 992.202 248.272 992.202 248.272 992.202 248.272 1004.99 262.915 1018.75 263.183 1032.51 263.452 1043.93 249.307 1043.93 249.307 1043.93 249.307 1033.06 234.702 1019.3 234.433Z"/>
        <path fill="#854800" d="M992.202 261.535C978.44 261.267 965.081 275.392 965.081 275.392 965.081 275.392 977.884 290.017 991.627 290.285 1005.37 290.553 1016.83 276.408 1016.83 276.408 1016.83 276.408 1005.96 261.803 992.202 261.535Z"/>
        <path fill="#854800" d="M1046.41 207.332C1032.66 207.063 1019.3 221.17 1019.3 221.17 1019.3 221.17 1032.09 235.794 1045.85 236.082 1059.61 236.369 1071.03 222.167 1071.03 222.167 1071.03 222.167 1060.17 207.6 1046.41 207.332Z"/>
        <path fill="#854800" d="M978.44 234.529C978.44 234.529 992.566 221.113 992.278 207.408 991.991 193.704 977.424 182.779 977.424 182.779 977.424 182.779 963.26 194.279 963.547 207.983 963.835 221.688 978.44 234.529 978.44 234.529Z"/>
        <path fill="#854800" d="M951.338 261.631C951.338 261.631 965.445 248.214 965.177 234.529 964.908 220.844 950.323 209.9 950.323 209.9 950.323 209.9 936.158 221.4 936.427 235.085 936.695 248.77 951.338 261.631 951.338 261.631Z"/>
        <path fill="#854800" d="M1005.54 207.427C1005.54 207.427 1019.67 194.011 1019.4 180.307 1019.13 166.603 1004.58 155.678 1004.58 155.678 1004.58 155.678 990.438 167.177 990.707 180.882 990.975 194.586 1005.54 207.427 1005.54 207.427Z"/>
    </g>
</svg>
